<svg width="550" height="550" viewBox="0 0 550 550" fill="none" xmlns="http://www.w3.org/2000/svg">
<rect y="100" width="50" height="50" fill="black"/>
<rect x="100" y="100" width="50" height="50" fill="black"/>
<rect x="500" y="100" width="50" height="50" fill="black"/>
<rect x="400" y="100" width="50" height="50" fill="black"/>
<rect x="300" y="100" width="50" height="50" fill="black"/>
<rect x="200" y="100" width="50" height="50" fill="black"/>
<rect y="200" width="50" height="50" fill="black"/>
<rect x="100" y="200" width="50" height="50" fill="black"/>
<rect x="500" y="200" width="50" height="50" fill="black"/>
<rect x="400" y="200" width="50" height="50" fill="black"/>
<rect x="300" y="200" width="50" height="50" fill="black"/>
<rect x="200" y="200" width="50" height="50" fill="black"/>
<rect y="400" width="50" height="50" fill="black"/>
<rect x="100" y="400" width="50" height="50" fill="black"/>
<rect x="500" y="400" width="50" height="50" fill="black"/>
<rect x="400" y="400" width="50" height="50" fill="black"/>
<rect x="300" y="400" width="50" height="50" fill="black"/>
<rect x="200" y="400" width="50" height="50" fill="black"/>
<rect y="500" width="50" height="50" fill="black"/>
<rect x="100" y="500" width="50" height="50" fill="black"/>
<rect x="500" y="500" width="50" height="50" fill="black"/>
<rect x="400" y="500" width="50" height="50" fill="black"/>
<rect x="300" y="500" width="50" height="50" fill="black"/>
<rect x="200" y="500" width="50" height="50" fill="black"/>
<rect y="300" width="50" height="50" fill="black"/>
<rect x="100" y="300" width="50" height="50" fill="black"/>
<rect x="500" y="300" width="50" height="50" fill="black"/>
<rect x="400" y="300" width="50" height="50" fill="black"/>
<rect x="300" y="300" width="50" height="50" fill="black"/>
<rect x="200" y="300" width="50" height="50" fill="black"/>
<rect width="50" height="50" fill="black"/>
<rect x="100" width="50" height="50" fill="black"/>
<rect x="500" width="50" height="50" fill="black"/>
<rect x="400" width="50" height="50" fill="black"/>
<rect x="300" width="50" height="50" fill="black"/>
<rect x="200" width="50" height="50" fill="black"/>
</svg>
