<svg width="1270" height="539" viewBox="0 0 1270 539" fill="none" xmlns="http://www.w3.org/2000/svg">
<line x1="28.0366" y1="497.943" x2="238.992" y2="132.557" stroke="#9D9D9D" stroke-width="45"/>
<line x1="78.5144" y1="527.136" x2="289.47" y2="161.75" stroke="#9D9D9D" stroke-width="45"/>
<line x1="328.171" y1="364.555" x2="356.813" y2="314.945" stroke="#9D9D9D" stroke-width="45"/>
<line x1="53.5144" y1="205.36" x2="82.1567" y2="155.75" stroke="#9D9D9D" stroke-width="45"/>
<line x1="59.25" y1="489.514" x2="109.307" y2="518.415" stroke="#9D9D9D" stroke-width="45"/>
<line x1="269.25" y1="124.514" x2="319.307" y2="153.415" stroke="#9D9D9D" stroke-width="45"/>
<line x1="112.228" y1="153.116" x2="387.272" y2="311.913" stroke="#9D9D9D" stroke-width="45"/>
<line x1="84.25" y1="197.514" x2="359.293" y2="356.311" stroke="#9D9D9D" stroke-width="45"/>
<path d="M509.253 169.48C509.253 166.96 516.057 165.7 529.665 165.7C543.399 165.7 550.266 166.96 550.266 169.48V256.231C550.266 269.083 545.667 279.604 536.469 287.794C527.271 295.858 514.545 299.89 498.291 299.89C482.163 299.89 468.996 295.732 458.79 287.416C448.71 278.974 443.67 267.634 443.67 253.396V169.669C443.67 167.149 450.474 165.889 464.082 165.889C477.816 165.889 484.683 167.149 484.683 169.669V254.908C484.683 257.428 486.006 259.444 488.652 260.956C491.424 262.468 494.322 263.224 497.346 263.224C500.37 263.224 503.079 262.531 505.473 261.145C507.993 259.759 509.253 257.68 509.253 254.908V169.48ZM619.805 296.866C619.805 297.748 615.269 298.189 606.197 298.189C593.597 297.811 587.297 297.118 587.297 296.11V234.874H582.383C579.107 234.874 576.965 232.102 575.957 226.558C575.705 224.92 575.579 223.282 575.579 221.644C575.579 217.738 576.335 213.832 577.847 209.926C580.115 204.382 583.643 201.61 588.431 201.61C593.219 201.61 597.503 202.744 601.283 205.012C605.063 207.28 607.583 209.548 608.843 211.816C616.781 205.012 626.231 201.61 637.193 201.61C648.155 201.61 656.093 204.571 661.007 210.493C665.921 216.415 668.378 226.117 668.378 239.599V296.299C668.378 297.811 662.96 298.567 652.124 298.567C641.414 298.567 636.059 297.811 636.059 296.299V241.678C636.059 235.378 633.854 232.228 629.444 232.228C628.184 232.228 626.42 232.795 624.152 233.929C621.884 234.937 620.435 235.693 619.805 236.197V296.866ZM734.108 296.866C734.108 297.874 728.312 298.378 716.72 298.378C705.254 298.378 699.521 297.937 699.521 297.055V204.256C699.521 203.374 705.254 202.933 716.72 202.933C728.312 202.933 734.108 203.311 734.108 204.067V296.866ZM734.108 192.916C734.108 193.798 728.312 194.239 716.72 194.239C705.254 194.239 699.521 193.861 699.521 193.105V165.889C699.521 164.629 705.254 163.999 716.72 163.999C728.312 163.999 734.108 164.377 734.108 165.133V192.916ZM809.791 296.866C809.791 298.378 804.499 299.134 793.915 299.134C781.315 298.63 775.015 297.811 775.015 296.677V229.771H765.376C762.856 229.771 761.596 225.424 761.596 216.73C761.596 214.462 761.785 211.69 762.163 208.414C762.667 205.138 763.612 203.5 764.998 203.5H775.015V186.868C775.015 184.348 780.307 183.088 790.891 183.088C801.601 183.088 806.956 184.096 806.956 186.112V198.208L807.145 203.5H823.21C825.352 203.5 826.423 207.91 826.423 216.73C826.423 225.55 825.352 229.96 823.21 229.96H809.791V296.866ZM922.466 292.897C914.528 297.559 904.322 299.89 891.848 299.89C879.374 299.89 868.853 295.669 860.285 287.227C851.717 278.659 847.433 266.878 847.433 251.884C847.433 236.764 851.528 224.605 859.718 215.407C868.034 206.209 878.492 201.61 891.092 201.61C903.692 201.61 913.394 204.823 920.198 211.249C927.128 217.675 930.593 225.487 930.593 234.685C930.593 255.097 918.875 265.303 895.439 265.303H882.398C882.398 269.083 883.406 271.729 885.422 273.241C887.564 274.627 890.651 275.32 894.683 275.32C903.503 275.32 911.882 273.304 919.82 269.272C919.946 269.146 920.513 270.028 921.521 271.918C924.545 277.336 926.057 281.935 926.057 285.715C926.057 289.369 924.86 291.763 922.466 292.897ZM898.841 238.276C898.841 232.984 896.258 230.338 891.092 230.338C888.698 230.338 886.619 231.094 884.855 232.606C883.217 233.992 882.398 236.071 882.398 238.843V244.702H892.604C896.762 244.702 898.841 242.56 898.841 238.276ZM1005.88 166.834C1005.88 164.944 1010.85 163.999 1020.81 163.999C1024.21 163.999 1028.12 164.251 1032.53 164.755C1037.06 165.133 1039.33 165.7 1039.33 166.456V266.059H1045.95C1049.1 266.059 1051.17 268.894 1052.18 274.564C1052.43 276.202 1052.56 278.47 1052.56 281.368C1052.56 284.14 1051.68 287.542 1049.91 291.574C1047.39 297.118 1043.36 299.89 1037.82 299.89C1033.66 299.89 1029.94 299.071 1026.67 297.433C1023.52 295.795 1021.38 294.094 1020.24 292.33L1018.54 289.873C1011.61 296.551 1002.92 299.89 992.458 299.89C982 299.89 973.054 295.543 965.62 286.849C958.186 278.155 954.469 266.059 954.469 250.561C954.469 234.937 958.375 222.904 966.187 214.462C973.999 205.894 983.764 201.61 995.482 201.61C998.884 201.61 1002.35 201.988 1005.88 202.744V166.834ZM999.64 231.85C992.584 231.85 989.056 238.213 989.056 250.939C989.056 257.365 990.064 262.027 992.08 264.925C994.096 267.697 996.301 269.083 998.695 269.083C1001.22 269.083 1003.61 268.012 1005.88 265.87V233.74C1003.74 232.48 1001.66 231.85 999.64 231.85ZM501.504 379.999C510.702 379.999 518.766 381.322 525.696 383.968C532.752 386.488 536.28 389.953 536.28 394.363C536.28 398.773 534.579 404.254 531.177 410.806C527.901 417.232 525.129 420.445 522.861 420.445C522.231 420.445 521.475 420.13 520.593 419.5C519.837 418.744 517.947 417.988 514.923 417.232C512.025 416.35 509.505 415.909 507.363 415.909C500.055 415.909 494.133 418.492 489.597 423.658C485.187 428.824 482.982 436.762 482.982 447.472C482.982 458.056 485.25 465.931 489.786 471.097C494.448 476.263 500.307 478.846 507.363 478.846C510.261 478.846 513.474 478.468 517.002 477.712C520.656 476.83 523.239 475.633 524.751 474.121C525.003 473.869 525.507 473.743 526.263 473.743C527.019 473.743 528.405 475.192 530.421 478.09C532.563 480.862 534.516 484.579 536.28 489.241C538.044 493.777 538.926 497.305 538.926 499.825C538.926 504.739 535.146 508.645 527.586 511.543C520.026 514.441 511.08 515.89 500.748 515.89C484.116 515.89 470.445 510.031 459.735 498.313C449.025 486.595 443.67 470.089 443.67 448.795C443.67 427.375 449.151 410.554 460.113 398.332C471.201 386.11 484.998 379.999 501.504 379.999ZM599.131 512.677C599.131 513.811 593.839 514.378 583.255 514.378C572.797 514.378 567.568 513.496 567.568 511.732V382.267C567.568 381.385 569.521 380.755 573.427 380.377C577.333 379.999 580.609 379.81 583.255 379.81C593.839 379.81 599.131 380.944 599.131 383.212V421.012C606.187 418.87 611.542 417.799 615.196 417.799C624.772 417.799 632.332 420.382 637.876 425.548C643.42 430.588 646.192 440.038 646.192 453.898V512.488C646.192 513.622 641.278 514.189 631.45 514.189C620.362 513.811 614.818 513.181 614.818 512.299V456.733C614.818 450.559 612.802 447.472 608.77 447.472C605.998 447.472 602.785 448.795 599.131 451.441V512.677ZM676.428 420.634C676.428 419.248 681.846 418.555 692.682 418.555C703.518 418.555 708.936 419.248 708.936 420.634V475.822C708.936 482.122 710.952 485.272 714.984 485.272C718.008 485.272 721.41 483.949 725.19 481.303V420.634C725.19 419.374 730.545 418.744 741.255 418.744C751.965 418.744 757.32 419.374 757.32 420.634V482.626H762.234C766.518 482.626 768.66 486.721 768.66 494.911C768.66 499.069 767.778 503.29 766.014 507.574C763.494 513.118 760.092 515.89 755.808 515.89C747.366 515.89 741.129 512.425 737.097 505.495L736.908 505.684C729.222 512.488 720.969 515.89 712.149 515.89C699.927 515.89 690.918 512.866 685.122 506.818C679.326 500.644 676.428 490.501 676.428 476.389V420.634ZM836.69 513.811C836.69 514.693 830.957 515.134 819.491 515.134C808.025 514.882 802.292 514.378 802.292 513.622V450.874H797.189C795.173 450.874 793.535 449.677 792.275 447.283C791.141 444.763 790.574 441.676 790.574 438.022C790.574 424.414 794.606 417.61 802.67 417.61C808.34 417.61 813.065 419.374 816.845 422.902C820.625 426.304 822.515 430.21 822.515 434.62C825.161 429.454 828.689 425.359 833.099 422.335C837.635 419.185 842.234 417.61 846.896 417.61C854.204 417.61 858.614 419.5 860.126 423.28C860.504 424.288 860.693 425.8 860.693 427.816C860.693 429.706 860.063 433.171 858.803 438.211C857.669 443.251 856.472 446.905 855.212 449.173C853.952 451.441 853.196 452.575 852.944 452.575C852.692 452.575 851.495 452.134 849.353 451.252C847.337 450.244 845.51 449.74 843.872 449.74C839.084 449.74 836.69 453.52 836.69 461.08V513.811ZM916.35 467.128C916.35 479.476 921.012 485.65 930.336 485.65C936.384 485.65 941.424 484.453 945.456 482.059C947.346 482.059 948.858 485.335 949.992 491.887C951.252 498.313 951.882 502.723 951.882 505.117C951.882 507.385 951.567 508.897 950.937 509.653C944.259 513.811 935.124 515.89 923.532 515.89C911.94 515.89 902.049 511.606 893.859 503.038C885.795 494.344 881.763 482.563 881.763 467.695C881.763 452.701 885.732 440.605 893.67 431.407C901.734 422.209 912.381 417.61 925.611 417.61C938.967 417.61 948.228 420.823 953.394 427.249C954.528 428.635 955.095 430.714 955.095 433.486C955.095 436.132 954.591 439.408 953.583 443.314C951.315 451.378 948.354 456.04 944.7 457.3C944.196 457.426 943.44 457.489 942.432 457.489C941.55 457.489 940.416 456.733 939.03 455.221C934.116 450.307 930.147 447.85 927.123 447.85C924.225 447.85 921.705 449.362 919.563 452.386C917.421 455.41 916.35 460.324 916.35 467.128ZM1012.14 512.677C1012.14 513.811 1006.85 514.378 996.265 514.378C985.807 514.378 980.578 513.496 980.578 511.732V382.267C980.578 381.385 982.531 380.755 986.437 380.377C990.343 379.999 993.619 379.81 996.265 379.81C1006.85 379.81 1012.14 380.944 1012.14 383.212V421.012C1019.2 418.87 1024.55 417.799 1028.21 417.799C1037.78 417.799 1045.34 420.382 1050.89 425.548C1056.43 430.588 1059.2 440.038 1059.2 453.898V512.488C1059.2 513.622 1054.29 514.189 1044.46 514.189C1033.37 513.811 1027.83 513.181 1027.83 512.299V456.733C1027.83 450.559 1025.81 447.472 1021.78 447.472C1019.01 447.472 1015.79 448.795 1012.14 451.441V512.677ZM1161.82 508.897C1153.89 513.559 1143.68 515.89 1131.21 515.89C1118.73 515.89 1108.21 511.669 1099.64 503.227C1091.08 494.659 1086.79 482.878 1086.79 467.884C1086.79 452.764 1090.89 440.605 1099.08 431.407C1107.39 422.209 1117.85 417.61 1130.45 417.61C1143.05 417.61 1152.75 420.823 1159.56 427.249C1166.49 433.675 1169.95 441.487 1169.95 450.685C1169.95 471.097 1158.23 481.303 1134.8 481.303H1121.76C1121.76 485.083 1122.76 487.729 1124.78 489.241C1126.92 490.627 1130.01 491.32 1134.04 491.32C1142.86 491.32 1151.24 489.304 1159.18 485.272C1159.3 485.146 1159.87 486.028 1160.88 487.918C1163.9 493.336 1165.42 497.935 1165.42 501.715C1165.42 505.369 1164.22 507.763 1161.82 508.897ZM1138.2 454.276C1138.2 448.984 1135.62 446.338 1130.45 446.338C1128.06 446.338 1125.98 447.094 1124.21 448.606C1122.58 449.992 1121.76 452.071 1121.76 454.843V460.702H1131.96C1136.12 460.702 1138.2 458.56 1138.2 454.276ZM1201.39 479.98C1211.59 486.154 1219.66 489.241 1225.58 489.241C1229.36 489.241 1231.25 487.918 1231.25 485.272C1231.25 483.382 1227.97 480.925 1221.42 477.901C1205.67 471.475 1197.8 460.954 1197.8 446.338C1197.8 437.014 1201.2 429.895 1208 424.981C1214.81 420.067 1222.93 417.61 1232.38 417.61C1241.96 417.61 1250.02 418.618 1256.58 420.634C1263.25 422.65 1266.59 425.296 1266.59 428.572C1266.59 431.344 1265.21 434.998 1262.43 439.534C1259.79 444.07 1257.96 446.527 1256.95 446.905C1251.54 443.881 1245.68 442.369 1239.38 442.369C1235.97 442.369 1234.27 443.566 1234.27 445.96C1234.27 447.472 1234.9 448.795 1236.16 449.929C1237.55 450.937 1240.01 452.26 1243.53 453.898C1247.06 455.41 1249.96 456.796 1252.23 458.056C1254.62 459.316 1257.27 461.08 1260.17 463.348C1266.21 468.136 1269.24 474.373 1269.24 482.059C1269.24 492.139 1265.9 500.329 1259.22 506.629C1252.54 512.803 1242.46 515.89 1228.98 515.89C1220.04 515.89 1211.91 514.378 1204.6 511.354C1197.29 508.33 1193.64 504.172 1193.64 498.88C1193.64 495.352 1194.46 491.635 1196.1 487.729C1197.86 483.823 1199.62 481.24 1201.39 479.98Z" fill="#EC5252"/>
<ellipse cx="400" cy="80.5" rx="38" ry="30.5" fill="#EC5252"/>
<ellipse cx="30.5" cy="263" rx="30.5" ry="35" fill="#EC5252"/>
<ellipse cx="362" cy="37" rx="45" ry="37" fill="#D9D9D9"/>
</svg>
