<svg width="1479" height="2143" viewBox="0 0 1479 2143" fill="none" xmlns="http://www.w3.org/2000/svg">
<path d="M402.246 1963.6C557.103 1892.41 684.755 1933.94 729.224 1963.6L652.057 1667.65C630.549 1639.66 600.438 1568.87 652.057 1509.68C703.676 1450.49 819.76 1485.02 871.35 1509.68C889.952 1519.51 957.323 1641.86 1078 2052.58C1057.42 2123.77 968.862 2134.9 927.154 2131.57C646.099 2152.9 73.1763 2135.57 21.2086 2131.57C-30.759 2127.57 31.3813 1998.09 53.0344 1963.6L133.253 2007.09C133.253 1925.11 247.39 2034.79 402.246 1963.6Z" fill="white" stroke="white"/>
<path d="M896.259 1347C913.664 1505.84 851.465 1559.92 821.26 1565.36L605.913 1590.28C577.578 1587.86 517.864 1484.63 505.689 1091.1C493.514 697.572 582.345 626.79 628.283 640.59L731.884 652.394C719.723 643.858 725.233 647.13 733.81 652.614L731.884 652.394C743.269 660.386 770.145 678.728 824.496 715.295C883.16 732.639 896.781 693.073 896.259 671.122L946.752 853.434C920.622 952.934 878.853 1188.16 896.259 1347Z" fill="white"/>
<path d="M595.416 1591.5L605.913 1590.28M605.913 1590.28L821.26 1565.36C851.465 1559.92 913.664 1505.84 896.259 1347C878.853 1188.16 920.622 952.934 946.752 853.434L896.259 671.122C896.781 693.073 883.16 732.639 824.496 715.295C712.091 639.669 717.204 641.997 733.81 652.614L628.283 640.59C582.345 626.79 493.514 697.572 505.689 1091.1C517.864 1484.63 577.578 1587.86 605.913 1590.28Z" stroke="white"/>
<path d="M1268 1003.5L1153.82 347.796L1307.21 295C1368.34 533.494 1488 1016.23 1477.6 1039.23C1467.19 1062.23 1403.86 1143.83 1405.5 1209.5L1307.21 1209.5L1013.93 1088.24C973.459 1065.01 878.324 983.871 821.586 845.162C750.663 671.776 889.239 759.839 1036.4 771.222C1154.13 780.329 1259.29 961.246 1268 1003.5Z" fill="white" stroke="white"/>
<ellipse cx="715.5" cy="295.5" rx="176.5" ry="295.5" fill="#EC5242"/>
</svg>
