<svg width="2125" height="3026" viewBox="0 0 2125 3026" fill="none" xmlns="http://www.w3.org/2000/svg">
<path d="M1079.96 708L777 824.868V1644.36C813.455 1718.02 983.297 1854.92 1371.02 1813.28C1434.17 1776.94 1445.84 1759.34 1443.78 1755.08V1507.62V1175.95L1371.02 760.047L1079.96 708Z" fill="white" stroke="white"/>
<path d="M1409 1870L1086 1945.5L777 1870C797.667 1934.17 845.4 2200.3 873 2227.5C900.6 2254.7 811.5 2736 777 2798L845.5 2914.5L1086 2962.5V2461L1223.5 2227.5L1340.5 2461L1409 3024.5L1649.5 2962.5L1574 2392.5L1409 1870Z" fill="#EC5242" stroke="white"/>
<path d="M440.5 440L214 158.5H1V268L365 804L585 941.5L674.5 845.5V728.5L440.5 440Z" fill="white"/>
<path d="M2124.5 268L1987 110L1849.5 302.5L1540 646L1478.5 845.5L1540 990C1597.33 974 1785.1 766.538 1911.5 646C2062.5 502 2124.5 320.667 2124.5 268Z" fill="white"/>
<path d="M440.5 440L214 158.5H1V268L365 804L585 941.5L674.5 845.5V728.5L440.5 440Z" stroke="white"/>
<path d="M2124.5 268L1987 110L1849.5 302.5L1540 646L1478.5 845.5L1540 990C1597.33 974 1785.1 766.538 1911.5 646C2062.5 502 2124.5 320.667 2124.5 268Z" stroke="white"/>
<ellipse cx="1052" cy="299" rx="275" ry="299" fill="#EC5242"/>
</svg>
