<svg width="144" height="233" viewBox="0 0 144 233" fill="none" xmlns="http://www.w3.org/2000/svg">
<path d="M52.5 188.5L55.5 131.5C58 130 72.7 124.3 123.5 131.5L132 170.5L142.5 220.5H126.5L103 162.5C89.5 150 81.5 147 81.5 179C81.5 213.229 78.6872 229.43 80.1378 232H81.5C80.8543 232.485 80.417 232.495 80.1378 232H66L52.5 188.5Z" fill="white"/>
<path d="M55.5 131.5L52.5 188.5L66 232H81.5C77.5 235 81.5 219.818 81.5 179C81.5 147 89.5 150 103 162.5L126.5 220.5H142.5L132 170.5L123.5 131.5C72.7 124.3 58 130 55.5 131.5Z" stroke="white"/>
<path d="M124 122H55C55 122 41.6122 89.3809 52 73.5C66.5367 51.2764 120 73.5 120 73.5L124 122Z" fill="#EC5242"/>
<path d="M28 54.5C56.8 31.3 65.6667 44.8333 65 54.5C55.3333 61.8333 24.9 74.9 18.5 88.5C12.1 102.1 8.00005 99.1667 2.00003 93.5C-1.3333 90.1667 -0.799965 77.7 28 54.5Z" fill="#EC5242"/>
<path d="M124 122H55C55 122 41.6122 89.3809 52 73.5C66.5367 51.2764 120 73.5 120 73.5L124 122Z" stroke="white"/>
<path d="M28 54.5C56.8 31.3 65.6667 44.8333 65 54.5C55.3333 61.8333 24.9 74.9 18.5 88.5C12.1 102.1 8.00005 99.1667 2.00003 93.5C-1.3333 90.1667 -0.799965 77.7 28 54.5Z" stroke="white"/>
<path d="M62 20C54.4 4.39996 65.1666 3.16662 71.5 4.49996C73.3333 4.49996 78.9 3.89997 86.5 1.49999C96 -1.49997 100.5 20 98 49C90.4 57.4 77.1666 54.5 71.5 52C71.5 47.8333 69.6 35.6 62 20Z" fill="white"/>
<path d="M98 101.5C110.4 96.3 117.833 81 120 74H117L86.5 78.5L62 95C53.1666 97.1667 33.6 104.6 26 117C28.4 125.4 33.3333 122.167 35.5 119.5C51.1667 115.667 85.6 106.7 98 101.5Z" fill="white"/>
<path d="M62 20C54.4 4.39996 65.1666 3.16662 71.5 4.49996C73.3333 4.49996 78.9 3.89997 86.5 1.49999C96 -1.49997 100.5 20 98 49C90.4 57.4 77.1666 54.5 71.5 52C71.5 47.8333 69.6 35.6 62 20Z" stroke="white"/>
<path d="M98 101.5C110.4 96.3 117.833 81 120 74H117L86.5 78.5L62 95C53.1666 97.1667 33.6 104.6 26 117C28.4 125.4 33.3333 122.167 35.5 119.5C51.1667 115.667 85.6 106.7 98 101.5Z" stroke="white"/>
<path d="M6 48C7.5 56 21.5 223 28.5 229C37.7 233.8 17.3333 110.333 6 48Z" fill="#EC5242" stroke="white"/>
<path d="M25.5 30L5 51.5V59.5C14 52.5 31.8 36.8 31 30C30.2 23.2 27 27.1667 25.5 30Z" fill="white" stroke="white"/>
<ellipse cx="37" cy="24.5" rx="10.5" ry="12.5" fill="#EC5242"/>
</svg>
